# xmcd
#
# Track frame offsets:
#	182
#	12635
#	26085
#	39407
#	53612
#	66132
#	78797
#	93547
#	108380
#	118335
#	131927
#	144612
#	157112
#	175255
#	188160
#	199855
#	213710
#	226800
#	238272
#	253620
#
# Disc length: 3554 seconds
#
# Revision: 2
# Processed by: cddbd v1.5.2PL0 Copyright (c) Steve Scherf et al.
# Submitted via: audiograbber 1.83.01
#
DISCID=270de014
DTITLE=Muddy Waters - Anthology - The Finest Recordings
DYEAR=1991
DGENRE=Blues
TTITLE0=You Shook Me
TTITLE1=I Feel So Good (Live)
TTITLE2=Mannish Boy
TTITLE3=Rolling Stone
TTITLE4=You Need Love
TTITLE5=Stuff You Gotta Watch
TTITLE6=Baby Please Don't Go
TTITLE7=Still a Fool
TTITLE8=Evans Shuffle
TTITLE9=Rollin' and Tumblin' Part 1
TTITLE10=Hoochie Coochie Man
TTITLE11=She's Into Something
TTITLE12=My Home is in the Delta
TTITLE13=I Just Want to Make Love to You
TTITLE14=Gypsy Woman
TTITLE15=Elevate Me Mama
TTITLE16=Got My Mojo Working
TTITLE17=24 hours
TTITLE18=Honey Bee
TTITLE19=40 Days and 40 Nights
EXTD=
EXTT0=Recorded June 1962
EXTT1=Recored live at the Newport Jazz Festival, July 3rd 1960
EXTT2=Recorded 1955
EXTT3=Recorded February 1950
EXTT4=Recorded October 12th 1962
EXTT5=Recorded December 29th 1951
EXTT6=Recorded May 4th 1953
EXTT7=Recorded July 11th 1951
EXTT8=Recorded October 23rd 1950
EXTT9=Recorded February 1950
EXTT10=Recorded January 7th 1954
EXTT11=Recorded July 1959
EXTT12=Recodered September 1963
EXTT13=Recorded April 13th 1954
EXTT14=Recorded 1947
EXTT15=Recorded June 6th 1963
EXTT16=Recorded December 1st 1956
EXTT17=Recorded May 2nd 1963
EXTT18=Recorded January 23rd 1951
EXTT19=Recorded 1956
PLAYORDER=
